<svg width="19" height="20" viewBox="0 0 19 20" fill="none" xmlns="http://www.w3.org/2000/svg">
<path d="M9.5 19.5C14.7467 19.5 19 15.2467 19 10C19 4.7533 14.7467 0.5 9.5 0.5C4.25329 0.5 0 4.7533 0 10C0 15.2467 4.25329 19.5 9.5 19.5Z" fill="#3577E5"/>
<path d="M10.3867 15.6366V10.5066H12.0967L12.35 8.47997H10.3867V7.21331C10.3867 6.64331 10.5767 6.26331 11.4 6.26331H12.4767V4.42664C12.2867 4.42664 11.6533 4.36331 10.9567 4.36331C9.43667 4.36331 8.36 5.31331 8.36 7.0233V8.47997H6.65V10.5066H8.36V15.6366H10.3867Z" fill="white"/>
</svg>
