<svg width="19" height="20" viewBox="0 0 19 20" fill="none" xmlns="http://www.w3.org/2000/svg">
<path d="M19 10.2137C19 9.58833 18.9434 8.99458 18.8463 8.41666H9.70626V11.9871H14.9395C14.705 13.1587 14.0175 14.1483 12.9983 14.8212V17.1962H16.1205C17.9485 15.5417 19 13.1033 19 10.2137Z" fill="#4285F4"/>
<path d="M9.70629 19.5C12.327 19.5 14.5189 18.645 16.1205 17.1962L12.9983 14.8212C12.1247 15.3912 11.0166 15.7396 9.70629 15.7396C7.17458 15.7396 5.03111 14.0692 4.2627 11.8129H1.04346V14.2592C2.6369 17.3625 5.91276 19.5 9.70629 19.5Z" fill="#34A853"/>
<path d="M4.2627 11.8129C4.06048 11.2429 3.9553 10.6333 3.9553 9.99999C3.9553 9.36666 4.06854 8.75708 4.26267 8.18708V5.74083H1.04342C0.380161 7.02333 0 8.46416 0 9.99999C0 11.5358 0.380195 12.9767 1.04346 14.2592L4.2627 11.8129Z" fill="#FBBC05"/>
<path d="M9.70629 4.26042C11.138 4.26042 12.416 4.74333 13.427 5.68542L16.1933 2.97792C14.519 1.44208 12.327 0.5 9.70629 0.5C5.91276 0.5 2.63687 2.6375 1.04342 5.74083L4.26267 8.18708C5.03108 5.93083 7.17458 4.26042 9.70629 4.26042Z" fill="#EA4335"/>
</svg>
