<svg width="17" height="20" viewBox="0 0 17 20" fill="none" xmlns="http://www.w3.org/2000/svg">
<path d="M14.1577 18.7349C13.0644 19.735 11.8581 19.5791 10.7082 19.1076C9.48578 18.6265 8.36823 18.5961 7.0772 19.1076C5.46946 19.7617 4.61617 19.5715 3.64789 18.7349C-1.81882 13.4298 -1.01193 5.34869 5.20117 5.04446C6.70805 5.12052 7.76306 5.82976 8.65065 5.8887C9.96992 5.63581 11.2327 4.91136 12.6448 5.00643C14.3413 5.13573 15.6101 5.76701 16.4574 6.90217C12.9675 8.87968 13.7946 13.215 17 14.4319C16.3585 16.0196 15.5355 17.5883 14.1557 18.7482L14.1577 18.7349ZM8.52961 4.98741C8.36622 2.62962 10.3935 0.690145 12.7255 0.5C13.0462 3.21907 10.1031 5.25362 8.52961 4.98741Z" fill="black"/>
</svg>
