<svg width="89" height="44" viewBox="0 0 89 44" fill="none" xmlns="http://www.w3.org/2000/svg">
<path d="M15.5147 19.002C17.7484 15.6158 21.5687 13.5729 25.6672 13.5729H57.5565C56.0387 14.3557 54.7254 15.474 53.7193 16.8404L52.8248 18.0552C49.5155 22.5497 44.2215 25.2099 38.5864 25.2099H15.3059C13.6716 25.2099 12.0642 25.6194 10.6347 26.4L15.5147 19.002Z" fill="#3CB371"/>
<path d="M44.1416 4.96212C46.417 1.8466 50.0745 0 53.9698 0H89C87.1808 0.524042 85.6203 1.68826 84.6148 3.27152L83.3003 5.34159C80.6965 9.44186 76.1338 11.9322 71.2253 11.9322H39.051L44.1416 4.96212Z" fill="#363636"/>
<path d="M0 44L7.59588 30.7869C9.15446 28.0757 12.0722 26.4 15.2343 26.4L24.7309 26.5492L24.9745 26.4C23.0267 27.565 21.4026 29.1878 20.2476 31.1232L15.3719 39.2932C13.6316 42.2094 10.4549 44 7.02171 44H0Z" fill="#3CB371"/>
<path d="M37.1654 34.1744L43.7432 26.5492C42.6412 26.9366 41.4815 27.1345 40.3134 27.1345H30.4184C27.2856 27.1354 24.3907 28.7813 22.8219 31.4535L19.0714 37.842L29.6117 37.7963C32.5575 37.7836 35.3373 36.4507 37.1654 34.1744Z" fill="#363636"/>
</svg>
