<svg width="196" height="97" viewBox="0 0 196 97" fill="none" xmlns="http://www.w3.org/2000/svg">
<path d="M34.1673 41.8909C39.0864 34.4258 47.4997 29.922 56.5256 29.922H126.754C123.411 31.6478 120.519 34.1132 118.303 37.1254L116.333 39.8035C109.045 49.7118 97.3866 55.5763 84.9767 55.5763H33.7073C30.1083 55.5763 26.5683 56.4791 23.4203 58.2L34.1673 41.8909Z" fill="#3CB371"/>
<path d="M97.2107 10.9392C102.222 4.07092 110.276 0 118.855 0H196C191.994 1.15527 188.557 3.72185 186.343 7.21222L183.448 11.7758C177.714 20.815 167.665 26.3051 156.856 26.3051H86L97.2107 10.9392Z" fill="#363636"/>
<path d="M0 97L16.728 67.8711C20.1604 61.8942 26.586 58.2 33.5497 58.2L54.4635 58.5288L55 58.2C50.7106 60.7683 47.1339 64.3459 44.5903 68.6125L33.8527 86.6236C30.02 93.0525 23.0242 97 15.4635 97H0Z" fill="#3CB371"/>
<path d="M81.8473 75.339L96.3333 58.5288C93.9065 59.383 91.3523 59.8193 88.7795 59.8193H66.9888C60.0896 59.8212 53.7143 63.4497 50.2595 69.3406L42 83.4243L65.2123 83.3238C71.6996 83.2957 77.8215 80.3572 81.8473 75.339Z" fill="#363636"/>
</svg>
