<svg width="25" height="24" viewBox="0 0 25 24" fill="none" xmlns="http://www.w3.org/2000/svg">
<path d="M11.1126 22L11.0835 21.9972C9.33943 21.8332 7.83446 21.3404 6.61006 20.5323C5.52014 19.811 4.64242 18.8383 4.00427 17.6346C2.72872 15.2302 2.65123 12.4386 2.81077 10.5199L2.8133 10.4961C2.96094 9.41042 3.24634 8.46517 3.66215 7.68648C4.09265 6.88216 4.67205 6.23112 5.38694 5.75137C6.18944 5.21303 7.17934 4.87944 8.32877 4.75962C9.44427 4.64336 10.7477 4.72569 12.2033 5.00424L12.2268 5.00922C12.3038 5.02238 12.3823 5.02486 12.4601 5.01658L12.5568 4.98597L12.6695 4.99712C13.1033 5.03959 13.239 5.01491 13.262 5.00946L13.2856 5.00448C14.7407 4.72593 16.0443 4.6436 17.1601 4.75986C18.3095 4.87849 19.2992 5.21326 20.1019 5.75161C20.8156 6.23112 21.3967 6.88216 21.8262 7.68695C22.2418 8.46541 22.5274 9.41066 22.6751 10.4966L22.6776 10.5203C22.9136 13.3558 22.6857 17.2517 20.2605 19.7078C18.7585 21.2284 16.6118 21.9995 13.8769 21.9995H13.8637C13.2699 21.9855 12.3539 21.9855 11.1415 21.9995L11.1126 22ZM12.7373 21.0173C13.197 21.0173 13.5799 21.0208 13.8832 21.0279C15.1618 21.0279 16.2996 20.8424 17.2654 20.478C18.1335 20.1505 18.8849 19.6691 19.4987 19.0473C20.6958 17.8349 22.0392 15.3863 21.6441 10.6072C21.5109 9.6344 21.26 8.799 20.8984 8.12138C20.5454 7.4599 20.0738 6.92772 19.4987 6.54169C18.8423 6.10134 18.0171 5.82682 17.0461 5.72551C16.0408 5.62064 14.8491 5.69775 13.5041 5.95447C13.3016 6.00003 13.0357 6.00548 12.651 5.97179C12.4305 6.00527 12.2052 5.99939 11.987 5.95447C10.6418 5.69775 9.4501 5.62064 8.44475 5.72551C7.47385 5.82659 6.64855 6.10134 5.99217 6.54169C5.4158 6.92843 4.94428 7.4599 4.59102 8.12138C4.22914 8.799 3.97819 9.63535 3.84524 10.6072C3.74901 11.7724 3.77611 12.8956 3.92551 13.9462C4.09999 15.1735 4.43958 16.2689 4.93466 17.2021C6.13145 19.4577 8.22672 20.7446 11.1599 21.0277C11.7571 21.0211 12.2846 21.0173 12.7373 21.0173Z" fill="#C3C3C3"/>
<path d="M12.7016 8.64217C11.7692 8.64217 10.8386 8.29885 9.93529 7.62195C9.87569 7.57845 9.8259 7.52429 9.78881 7.46262C9.75172 7.40095 9.72808 7.33299 9.71925 7.26268C9.71043 7.19238 9.71659 7.12113 9.73739 7.05308C9.75818 6.98503 9.7932 6.92152 9.84041 6.86625C9.88761 6.81098 9.94606 6.76504 10.0124 6.73111C10.0787 6.69717 10.1515 6.67591 10.2267 6.66856C10.3018 6.66122 10.3778 6.66792 10.4501 6.6883C10.5225 6.70867 10.5898 6.74231 10.6482 6.78726C12.0491 7.83762 13.3542 7.83762 14.7551 6.78726C14.8135 6.74231 14.8808 6.70867 14.9532 6.6883C15.0255 6.66792 15.1015 6.66122 15.1766 6.66856C15.2518 6.67591 15.3246 6.69717 15.3909 6.73111C15.4572 6.76504 15.5157 6.81098 15.5629 6.86625C15.6101 6.92152 15.6451 6.98503 15.6659 7.05308C15.6867 7.12113 15.6928 7.19238 15.684 7.26268C15.6752 7.33299 15.6516 7.40095 15.6145 7.46262C15.5774 7.52429 15.5276 7.57845 15.468 7.62195C14.5649 8.29885 13.6341 8.64217 12.7016 8.64217Z" fill="#C3C3C3"/>
<path d="M12.7444 8.05685C12.656 8.05679 12.5688 8.0375 12.4897 8.0005C12.4106 7.9635 12.3418 7.9098 12.2886 7.84362C12.2354 7.77745 12.1994 7.70061 12.1833 7.61915C12.1672 7.5377 12.1715 7.45387 12.1959 7.37425C13.0182 4.70173 14.0061 2.98182 15.2163 2.11605C15.2756 2.07184 15.3438 2.03917 15.4168 2.01994C15.4899 2.00071 15.5662 1.99532 15.6415 2.00407C15.7168 2.01282 15.7894 2.03554 15.8552 2.07091C15.921 2.10627 15.9786 2.15357 16.0246 2.21004C16.0706 2.2665 16.1042 2.331 16.1233 2.39976C16.1425 2.46852 16.1468 2.54017 16.136 2.6105C16.1252 2.68084 16.0996 2.74846 16.0606 2.8094C16.0216 2.87035 15.97 2.9234 15.9089 2.96545C14.9144 3.67723 14.0349 5.26001 13.2924 7.67011C13.2582 7.78151 13.1862 7.87947 13.0874 7.94922C12.9885 8.01898 12.8682 8.05675 12.7444 8.05685Z" fill="#C3C3C3"/>
</svg>
