<svg width="25" height="24" viewBox="0 0 25 24" fill="none" xmlns="http://www.w3.org/2000/svg">
<path fill-rule="evenodd" clip-rule="evenodd" d="M7.31008 4.8893C4.76778 6.77703 3.49662 7.7209 2.99737 9.11512C2.95732 9.22696 2.9213 9.34027 2.88937 9.45481C2.49142 10.8827 2.97695 12.4099 3.94803 15.4643C4.9191 18.5187 5.40464 20.0459 6.5478 20.962C6.6395 21.0355 6.73381 21.1055 6.83054 21.172C8.03631 22 9.60754 22 12.75 22C15.8925 22 17.4637 22 18.6695 21.172C18.7662 21.1055 18.8605 21.0355 18.9522 20.962C20.0954 20.0459 20.5809 18.5187 21.552 15.4643C22.523 12.4099 23.0086 10.8827 22.6106 9.45481C22.5787 9.34027 22.5427 9.22696 22.5026 9.11512C22.0034 7.7209 20.7322 6.77704 18.1899 4.88931C15.6476 3.00158 14.3765 2.0577 12.9247 2.00327C12.8083 1.99891 12.6917 1.99891 12.5753 2.00327C11.1235 2.0577 9.85238 3.00157 7.31008 4.8893ZM10.8434 16.6821C10.4485 16.6821 10.1284 17.0093 10.1284 17.4129C10.1284 17.8164 10.4485 18.1436 10.8434 18.1436H14.6566C15.0515 18.1436 15.3716 17.8164 15.3716 17.4129C15.3716 17.0093 15.0515 16.6821 14.6566 16.6821H10.8434Z" fill="#3CB371"/>
</svg>
