<svg width="24" height="24" viewBox="0 0 24 24" fill="none" xmlns="http://www.w3.org/2000/svg">
<path fill-rule="evenodd" clip-rule="evenodd" d="M8.35408 21.8382C4.82332 18.6546 0 13.3957 0 8.42334C0 0.116642 6.60019 -2.98467 12 3.43216C17.3998 -2.98467 24 0.116642 24 8.4233C24 13.3958 19.1767 18.6546 15.646 21.8382C14.0476 23.2794 13.2484 24 12 24C10.7516 24 9.95244 23.2794 8.35408 21.8382ZM17.4 4.58824C17.897 4.58824 18.3 5.06229 18.3 5.64706V7.41179H19.8C20.297 7.41179 20.7 7.88584 20.7 8.47062C20.7 9.05538 20.297 9.52944 19.8 9.52944H18.3V11.2941C18.3 11.8789 17.897 12.3529 17.4 12.3529C16.903 12.3529 16.5 11.8789 16.5 11.2941V9.52944H15C14.503 9.52944 14.1 9.05538 14.1 8.47062C14.1 7.88584 14.503 7.41179 15 7.41179H16.5V5.64706C16.5 5.06229 16.903 4.58824 17.4 4.58824Z" fill="#3CB371"/>
</svg>
