<svg width="24" height="24" viewBox="0 0 24 24" fill="none" xmlns="http://www.w3.org/2000/svg">
<path fill-rule="evenodd" clip-rule="evenodd" d="M20.8 5.78313C22.5673 5.78313 24 4.48853 24 2.89157C24 1.2946 22.5673 0 20.8 0C19.0327 0 17.6 1.2946 17.6 2.89157C17.6 4.48853 19.0327 5.78313 20.8 5.78313ZM12.247 4.3345C11.0705 3.92029 9.75982 3.94634 8.60456 4.40689L7.91233 4.68283L7.91148 4.68318C7.24464 4.94902 6.88117 5.09392 6.52453 5.25388C5.93144 5.5199 5.35546 5.81593 4.7993 6.1406C4.4648 6.33586 4.14113 6.54413 3.54723 6.9263L3.54678 6.92658L1.68314 8.12581C1.25125 8.40371 1.15046 8.94536 1.45802 9.3356C1.76557 9.72584 2.36499 9.81698 2.79686 9.53905L4.63875 8.35382C5.26011 7.95398 5.54728 7.76943 5.84115 7.59789C6.33664 7.30865 6.84979 7.04491 7.37818 6.80792C7.69155 6.66736 8.01386 6.53864 8.71178 6.26041L9.37955 5.9942C10.068 5.71978 10.8489 5.70426 11.55 5.95109C13.5084 6.64055 13.9818 8.94996 12.4266 10.2275L11.088 11.3272C11.0478 11.36 11.0171 11.3854 10.9911 11.4076C9.43281 12.7404 9.54537 15.0121 11.2293 16.2138C11.2572 16.2337 11.2905 16.2565 11.3334 16.2858L11.3416 16.2914C11.4226 16.3468 11.4575 16.3708 11.4899 16.3936C13.4232 17.7462 14.5658 19.8235 14.5916 22.0328C14.592 22.0699 14.592 22.1096 14.592 22.2014V23.1325C14.592 23.6116 15.0218 24 15.552 24C16.0822 24 16.512 23.6116 16.512 23.1325V22.1959C16.512 22.1112 16.512 22.062 16.5115 22.0145C16.4794 19.275 15.0627 16.6991 12.6655 15.0218C12.6276 14.9953 12.5881 14.9682 12.5247 14.9248L12.5053 14.9116L12.501 14.9086C12.4461 14.871 12.4298 14.8598 12.4192 14.8522C11.6538 14.306 11.6027 13.2733 12.311 12.6675C12.3208 12.6592 12.3357 12.6468 12.3868 12.6049L13.7181 11.5112C16.3281 9.36729 15.5336 5.49158 12.247 4.3345ZM17.8328 10.7247C17.3185 10.6085 16.7973 10.8911 16.6687 11.3559C16.54 11.8206 16.8529 12.2916 17.3672 12.4078C19.2009 12.822 21.1191 12.822 22.9528 12.4078C23.4671 12.2916 23.78 11.8206 23.6513 11.3559C23.5227 10.8911 23.0015 10.6085 22.4872 10.7247C20.9592 11.0698 19.3608 11.0698 17.8328 10.7247ZM9.3775 17.9047C9.71691 17.5367 9.66189 16.9897 9.25458 16.6829C8.84727 16.3763 8.24193 16.4261 7.9025 16.7941L7.57053 17.154C5.93564 18.9268 3.51379 19.9518 0.96 19.9518C0.429811 19.9518 0 20.3402 0 20.8193C0 21.2984 0.429811 21.6867 0.96 21.6867C4.08361 21.6867 7.04584 20.4331 9.04552 18.2648L9.3775 17.9047Z" fill="#3CB371"/>
</svg>
