<svg width="20" height="24" viewBox="0 0 20 24" fill="none" xmlns="http://www.w3.org/2000/svg">
<path d="M10.195 8.363C11.3268 7.95414 17.6134 2.69301 13.5303 0.370908C9.79855 -1.75135 8.74774 5.83595 9.34347 7.89282C9.37257 8.12158 9.8163 8.40348 10.195 8.363Z" fill="#3CB371"/>
<path d="M18.2138 8.56173C14.1864 5.88978 10.8479 9.45238 10.053 9.45238C10.0381 9.45238 9.96195 9.45238 9.947 9.45238C9.1522 9.45238 5.81355 5.88973 1.78617 8.56173C-2.24133 11.2337 0.779292 24 8.46315 24C9.0776 24 9.58185 24 10.0927 24C10.5423 24 10.997 24 11.5369 24C19.2208 24.0001 22.2413 11.2337 18.2138 8.56173ZM14.7692 15.0198C14.5572 16.2355 12.8837 17.7177 11.5391 18.9087C11.1762 19.2292 10.8088 19.5542 10.5823 19.7834C10.5592 19.8092 10.3054 20.0785 10.0193 20.0785C9.73514 20.0785 9.47557 19.8132 9.44668 19.783C9.23374 19.5689 8.90662 19.2817 8.52786 18.9484L8.49677 18.9211C7.13717 17.7268 5.44463 16.2407 5.23029 15.0203C5.08351 14.1791 5.21722 13.4978 5.62745 12.9951C6.04123 12.4881 6.69161 12.1966 7.61608 12.1038C7.69262 12.0966 7.7713 12.0923 7.85257 12.0923C8.67308 12.0923 9.49063 12.4519 10.0001 13.0232C10.509 12.4519 11.3269 12.0923 12.1479 12.0923C12.2292 12.0923 12.3083 12.0966 12.3833 12.1038C13.3093 12.1966 13.9598 12.4879 14.3733 12.9953C14.7838 13.4982 14.9166 14.1793 14.7692 15.0198Z" fill="#3CB371"/>
</svg>
