<svg width="24" height="24" viewBox="0 0 24 24" fill="none" xmlns="http://www.w3.org/2000/svg">
<path d="M23.9997 14.1224C24.0108 13.8366 23.7268 13.6168 23.5232 13.4019C23.1657 12.1021 22.4571 10.613 21.4285 9.13532C19.7791 6.76781 15.4142 2.9507 13.7563 2.36191C13.6728 2.33242 13.5982 2.31578 13.5295 2.30199C13.3639 1.82021 13.2762 1.48967 12.6315 1.10301C10.8578 0.0395853 8.87739 -0.260039 7.56643 0.226494C6.25442 0.713026 5.5257 3.40679 6.93713 4.32849C8.28352 5.21167 10.9472 3.43057 11.7997 4.57057C12.6506 5.71009 13.5903 9.50438 15.1514 11.9294C14.7569 11.8809 14.3507 11.8552 13.9314 11.8552C12.1302 11.8552 10.5115 12.3299 9.36761 13.0885C8.38929 11.7154 6.68118 10.8027 4.73299 10.8027C2.71287 10.8027 0.956645 11.7844 0 13.2425V24H2.58014L3.13118 23.1206C4.90486 22.5085 7.00218 20.9296 8.45962 19.246C14.2841 21.3015 23.8691 17.4967 23.9997 14.1224Z" fill="#3CB371"/>
</svg>
